<svg id="elyofQ3A0EX1" xmlns="http://www.w3.org/2000/svg" xmlns:xlink="http://www.w3.org/1999/xlink" viewBox="0 0 58 55.9909" shape-rendering="geometricPrecision" text-rendering="geometricPrecision" project-id="3fb73f679c8e4737b81c2035314be7c1" export-id="6d69fd1c04d042769ee8e05e3712970d" cached="false"><g transform="translate(.000002 0.000002)"><path d="M55.27,23.196c.973.99.973,2.594,0,3.583L45.083,37.141c-.308685.316744-.732218.495382-1.1745.495382s-.865815-.178638-1.1745-.495382L30.85,25.052c-.467-.475-.73-1.12-.73-1.792v-21.567c0-1.505,1.789-2.259,2.835-1.194L55.269,23.197l.001-.001ZM10.301,36.504c.46301.47496,1.098201.742817,1.7615.742817s1.29849-.267857,1.7615-.742817l11.29-11.485c.467-.475.729-1.12.729-1.792v-21.514c0-1.505-1.789-2.259-2.835-1.195L0.73,23.183c-.973.99-.973,2.594,0,3.584l9.571,9.737Z" transform="translate(1.122213 2.122465)" fill="#3c52d9"/><rect width="18.967" height="19.118" rx="3.099" ry="3.099" transform="matrix(.707107-.707107 0.707107 0.707107 15.534919 42.772445)" fill="#2ef2ff"/></g></svg>
